# xmcd
#
# Track frame offsets:
#	150
#	14589
#	28325
#	41958
#	54875
#	67737
#	80428
#	94558
#	108178
#	121994
#	134214
#	145409
#	160460
#	174796
#	188829
#	201604
#	215973
#	229682
#	243233
#	256795
#	271082
#
# Disc length: 3801 seconds
# Revision: 1
# Processed by: cddbd v1.5.2PL0 Copyright (c) Steve Scherf et al.
# Submitted via: dBpowerAMP V12.0
#
DISCID=300ed715
DTITLE=Various Artist - American Epic: The Collection
DYEAR=1930
DGENRE=Blues
TTITLE0=Cuarteto Flores - Cecilia
TTITLE1=Los Borinquenos - La Coquetera
TTITLE2=Guty Cardenas y Lencho - Coconito
TTITLE3=Emmett Miller - Lovesick Blues
TTITLE4=Big Bill Broonzy - Long Tall Mama
TTITLE5=Two Poor Boys - John Henry Blues
TTITLE6=Lead Belly - Mr. Tom Hughes' Town
TTITLE7=Mississippi John Hurt - Louis Collins
TTITLE8=Blind Gary Davis - I Am the Light of the World
TTITLE9=Rev. F.W. McGee - Fifty Miles of Elbow Room
TTITLE10=Hopi Indian Singers - Chant of the Eagle Dance
TTITLE11=Mike Hanapi and The Ilima Islanders - Hilo Hula (Hilo Hanakahi)
TTITLE12=Charlie Poole and The North Carolina Ramblers - If the River Was Whiskey
TTITLE13=Frank Hutchison - Stackalee
TTITLE14=Ernest Stoneman - The Wreck of the '97
TTITLE15=Buell Kazee - Faded Coat of Blue
TTITLE16=Dock Boggs - Country Blues
TTITLE17=Uncle Dave Macon and His Fruit-Jar Drinkers - Sail Away, Ladies
TTITLE18=Uncle Bunt Stephens - Sail Away Lady
TTITLE19=A.C. (Eck) Roberston - Sallie Gooden
TTITLE20=Don Richardson - Arkansas Traveler
EXTD=
EXTT0=
EXTT1=
EXTT2=
EXTT3=
EXTT4=
EXTT5=
EXTT6=
EXTT7=
EXTT8=
EXTT9=
EXTT10=
EXTT11=
EXTT12=
EXTT13=
EXTT14=
EXTT15=
EXTT16=
EXTT17=
EXTT18=
EXTT19=
EXTT20=
PLAYORDER=
